<svg width="24" height="24" viewBox="0 0 24 24" fill="none" xmlns="http://www.w3.org/2000/svg">
<path fill-rule="evenodd" clip-rule="evenodd" d="M7.53402 9.21078L10.888 5.85578V15.0368C10.888 15.3287 11.004 15.6086 11.2103 15.815C11.4167 16.0213 11.6966 16.1373 11.9885 16.1373C12.2804 16.1373 12.5603 16.0213 12.7667 15.815C12.9731 15.6086 13.089 15.3287 13.089 15.0368V5.85678L16.444 9.21078C16.5458 9.31343 16.6669 9.39491 16.8004 9.45051C16.9338 9.50611 17.077 9.53473 17.2215 9.53473C17.3661 9.53473 17.5092 9.50611 17.6427 9.45051C17.7761 9.39491 17.8972 9.31343 17.999 9.21078C18.1012 9.10863 18.1823 8.98735 18.2376 8.85385C18.2929 8.72036 18.3214 8.57728 18.3214 8.43278C18.3214 8.28829 18.2929 8.1452 18.2376 8.01171C18.1823 7.87822 18.1012 7.75693 17.999 7.65478L12.766 2.42178C12.5592 2.21666 12.2798 2.10156 11.9885 2.10156C11.6973 2.10156 11.4178 2.21666 11.211 2.42178L5.97802 7.65478C5.78402 7.86357 5.67855 8.13946 5.68378 8.42442C5.68901 8.70938 5.80454 8.9812 6.00607 9.18273C6.2076 9.38426 6.47943 9.49979 6.76439 9.50502C7.04934 9.51026 7.32523 9.40478 7.53402 9.21078Z" fill="#8B95A1"/>
<path fill-rule="evenodd" clip-rule="evenodd" d="M20.3811 13.0928C19.7741 13.0928 19.2801 13.5858 19.2801 14.1928V18.3998C19.2801 19.1168 18.6971 19.6998 17.9811 19.6998H5.99609C5.27909 19.6998 4.69609 19.1168 4.69609 18.3998V14.1918C4.69609 13.9001 4.5802 13.6203 4.37391 13.414C4.16762 13.2077 3.88783 13.0918 3.59609 13.0918C3.30436 13.0918 3.02457 13.2077 2.81828 13.414C2.61199 13.6203 2.49609 13.9001 2.49609 14.1918V18.3998C2.49609 20.3298 4.06609 21.8998 5.99609 21.8998H17.9811C19.9101 21.8998 21.4811 20.3298 21.4811 18.3998V14.1918C21.4811 13.9001 21.3652 13.6203 21.1589 13.414C20.9526 13.2077 20.6728 13.0918 20.3811 13.0918" fill="#8B95A1"/>
</svg>
